<svg height="24" id="svg3171" version="1.1" viewBox="0 0 6.3499999 6.3500002" width="24" xmlns="http://www.w3.org/2000/svg" xmlns:rdf="http://www.w3.org/1999/02/22-rdf-syntax-ns#" xmlns:svg="http://www.w3.org/2000/svg"><defs id="defs3165"/><g id="layer1"><path d="M 0.52916857,0.79375218 V 5.5552183 c -5.62e-4,0.1461698 0.117413,0.2650998 0.263626,0.2656168 H 5.5556396 c 0.192696,8.731e-4 0.2660261,-0.07445 0.2651868,-0.2640788 1.01e-5,-1.498255 0,-2.9988231 0,-4.4979041 C 5.8216731,0.91253018 5.7035647,0.79330218 5.5571996,0.79271818 H 4.7616694 C 4.6153017,0.79330028 4.4971896,0.91252718 4.4980336,1.0588522 V 5.2916681 H 4.2323406 V 2.6463522 c 5.569e-4,-0.14612 -0.117465,-0.265033 -0.2636261,-0.265617 H 3.1757675 C 3.0285966,2.3798882 2.9089946,2.4992212 2.9095576,2.6463522 V 5.2916681 H 2.6459316 V 4.2323021 C 2.6453486,4.0861823 2.5263996,3.9681942 2.3802376,3.9687522 h -0.792946 c -0.146162,-5.556e-4 -0.265109,0.1174301 -0.265694,0.2635499 v 1.059366 H 1.0584886 V 0.79375218 c 0.0044,-0.349333 -0.52443003,-0.356236 -0.52932003,0 z" id="path1938" style="color:#ff5200;font-style:normal;font-variant:normal;font-weight:normal;font-stretch:normal;font-size:medium;line-height:normal;font-family:sans-serif;font-variant-ligatures:normal;font-variant-position:normal;font-variant-caps:normal;font-variant-numeric:normal;font-variant-alternates:normal;font-variant-east-asian:normal;font-feature-settings:normal;font-variation-settings:normal;text-indent:0;text-align:start;text-decoration:none;text-decoration-line:none;text-decoration-style:solid;text-decoration-color:#ff5200;letter-spacing:normal;word-spacing:normal;text-transform:none;writing-mode:lr-tb;direction:ltr;text-orientation:mixed;dominant-baseline:auto;baseline-shift:baseline;text-anchor:start;white-space:normal;shape-padding:0;shape-margin:0;inline-size:0;clip-rule:nonzero;display:inline;overflow:visible;visibility:visible;opacity:1;isolation:auto;mix-blend-mode:normal;color-interpolation:sRGB;color-interpolation-filters:linearRGB;solid-color:#ff5200;solid-opacity:1;vector-effect:none;fill:#ff5200;fill-opacity:1;fill-rule:nonzero;stroke:none;stroke-width:0.529243;stroke-linecap:round;stroke-linejoin:round;stroke-miterlimit:4;stroke-dasharray:none;stroke-dashoffset:0;stroke-opacity:1;color-rendering:auto;image-rendering:auto;shape-rendering:auto;text-rendering:auto;enable-background:accumulate;stop-color:#ff5200;stop-opacity:1"/></g></svg>