<svg width="36" height="36" viewBox="0 0 36 36" fill="none" xmlns="http://www.w3.org/2000/svg">
<mask id="mask0_160_138750" style="mask-type:alpha" maskUnits="userSpaceOnUse" x="0" y="7" width="36" height="24">
<path opacity="0.35" d="M0.75 27H30C30 29.0711 28.3211 30.75 26.25 30.75H0.75V27Z" fill="black"/>
<path opacity="0.75" fill-rule="evenodd" clip-rule="evenodd" d="M7.5 7.5H28.5V27H7.5V7.5ZM14.6667 15.8331V10.5H19.5628C20.7272 10.5 21.9261 10.732 22.735 11.5695C23.3781 12.2354 24 13.2122 24 14.5C24 15.7878 23.3781 16.7646 22.735 17.4305C21.9261 18.268 20.7272 18.5 19.5628 18.5H18V19.8333H21.3333C21.3333 21.3061 20.1394 22.5 18.6667 22.5H18C18 23.6046 17.1046 24.5 16 24.5H14.6667V22.5H12V22.4457C12 20.9816 13.2029 19.8032 14.6667 19.8333V18.5L12 18.4451C12 16.9812 13.2031 15.803 14.6667 15.8331ZM19.3333 13.1667H18V15.8331L19.3333 15.8333C19.3333 15.8333 20.6667 15.8336 20.6667 14.5002C20.6667 13.1669 19.3333 13.1667 19.3333 13.1667Z" fill="black"/>
<path fill-rule="evenodd" clip-rule="evenodd" d="M6.75 7.5C3.43629 7.5 0.75 10.1863 0.75 13.5V27H7.5V7.5H6.75ZM35.25 7.5H28.5V27H30.75C33.2353 27 35.25 24.9853 35.25 22.5V7.5Z" fill="black"/>
</mask>
<g mask="url(#mask0_160_138750)">
<path d="M0 0H36V36H0V0Z" fill="#ff5200"/>
</g>
</svg>
