<svg width="36" height="36" viewBox="0 0 36 36" fill="none" xmlns="http://www.w3.org/2000/svg">
<mask id="mask0_160_138756" style="mask-type:alpha" maskUnits="userSpaceOnUse" x="0" y="1" width="36" height="32">
<path d="M0 28.5C0 26.0147 2.01472 24 4.5 24H10.5V28.5C10.5 30.9853 8.48528 33 6 33H0V28.5Z" fill="url(#paint0_linear_160_138756)"/>
<path d="M10.5 22.5C10.5 20.0147 12.5147 18 15 18H21V28.5C21 30.9853 18.9853 33 16.5 33H10.5V22.5Z" fill="url(#paint1_linear_160_138756)"/>
<path d="M16.5 13.5L26.25 1.5L36 13.5H31.5V28.5C31.5 30.9853 29.4853 33 27 33H21V13.5H16.5Z" fill="url(#paint2_linear_160_138756)"/>
</mask>
<g mask="url(#mask0_160_138756)">
<path d="M0 0H36V36H0V0Z" fill="#ff5200"/>
</g>
<defs>
<linearGradient id="paint0_linear_160_138756" x1="0.75" y1="25.5" x2="9" y2="33" gradientUnits="userSpaceOnUse">
<stop stop-opacity="0.5"/>
<stop offset="1" stop-opacity="0.4"/>
</linearGradient>
<linearGradient id="paint1_linear_160_138756" x1="11.25" y1="20.5" x2="22.8631" y2="26.8344" gradientUnits="userSpaceOnUse">
<stop stop-opacity="0.7"/>
<stop offset="1" stop-opacity="0.5"/>
</linearGradient>
<linearGradient id="paint2_linear_160_138756" x1="27" y1="1.5" x2="41.5985" y2="23.1615" gradientUnits="userSpaceOnUse">
<stop/>
<stop offset="0.571429" stop-opacity="0.9"/>
<stop offset="1" stop-opacity="0.5"/>
</linearGradient>
</defs>
</svg>
